<svg xmlns="http://www.w3.org/2000/svg" version="1.1" xmlns:xlink="http://www.w3.org/1999/xlink" xmlns:svgjs="http://svgjs.dev/svgjs" width="2000" height="1920" preserveAspectRatio="none" viewBox="0 0 2000 1920"><g mask="url(&quot;#SvgjsMask1399&quot;)" fill="none"><rect width="2000" height="1920" x="0" y="0" fill="url(&quot;#SvgjsLinearGradient1400&quot;)"></rect><path d="M-404.52 148.52 a553.04 553.04 0 1 0 1106.08 0 a553.04 553.04 0 1 0 -1106.08 0z" fill="rgba(28, 83, 142, 0.4)" class="triangle-float3"></path><path d="M-371.78 115.78 a487.56 487.56 0 1 0 975.12 0 a487.56 487.56 0 1 0 -975.12 0z" fill="rgba(28, 83, 142, 0.4)" class="triangle-float1"></path><path d="M218.145,558.501C338.916,560.516,453.196,493.191,508.939,386.035C561.082,285.8,534.553,165.598,471.205,72.041C415.487,-10.247,317.484,-40.699,218.145,-43.431C112.406,-46.339,-2.364,-31.123,-60.225,57.428C-122.604,152.894,-111.695,276.915,-56.313,376.603C0.815,479.434,100.527,556.538,218.145,558.501" fill="rgba(28, 83, 142, 0.4)" class="triangle-float1"></path><path d="M1357.91 2.1 a260.19 260.19 0 1 0 520.38 0 a260.19 260.19 0 1 0 -520.38 0z" fill="rgba(28, 83, 142, 0.4)" class="triangle-float2"></path><path d="M1792.592,442.896C1883.58,441.785,1957.941,377.098,2001.508,297.21C2043.077,220.986,2048.056,129.352,2004.559,54.212C1961.145,-20.784,1879.084,-58.375,1792.592,-63.687C1693.802,-69.754,1580.787,-59.971,1530.159,25.076C1478.827,111.306,1521.273,217.441,1574.649,302.421C1623.921,380.867,1699.963,444.027,1792.592,442.896" fill="rgba(28, 83, 142, 0.4)" class="triangle-float1"></path><path d="M1895.133,637.113C2031.225,648.366,2172.252,596.749,2243.762,480.414C2318.277,359.191,2313.877,201.443,2236.233,82.199C2164.56,-27.875,2026.333,-61.316,1895.133,-55.003C1776.051,-49.273,1663.062,7.543,1606.517,112.501C1552.521,212.727,1578.975,330.237,1633.851,429.984C1691.269,534.352,1776.418,627.297,1895.133,637.113" fill="rgba(28, 83, 142, 0.4)" class="triangle-float1"></path><path d="M129.365,1913.876C217.381,1913.15,300.031,1865.446,340.819,1787.448C379.055,1714.33,360.422,1627.114,315.528,1557.884C274.767,1495.026,204.282,1461.112,129.365,1461.367C54.929,1461.62,-13.608,1497.022,-54.615,1559.144C-100.722,1628.993,-126.748,1716.689,-88.215,1790.985C-47.112,1870.236,40.092,1914.612,129.365,1913.876" fill="rgba(28, 83, 142, 0.4)" class="triangle-float2"></path><path d="M-358.7 1638.7 a461.4 461.4 0 1 0 922.8 0 a461.4 461.4 0 1 0 -922.8 0z" fill="rgba(28, 83, 142, 0.4)" class="triangle-float2"></path><path d="M-432.09 1712.1 a608.19 608.19 0 1 0 1216.38 0 a608.19 608.19 0 1 0 -1216.38 0z" fill="rgba(28, 83, 142, 0.4)" class="triangle-float1"></path><path d="M1959.093,2280.879C2115.589,2292.521,2288.211,2250.304,2365.231,2113.577C2441.32,1978.503,2378.238,1815.918,2294.51,1685.441C2218.685,1567.279,2099.487,1481.764,1959.093,1480.674C1816.854,1479.57,1682.212,1555.051,1614.532,1680.161C1549.739,1799.935,1577.918,1941.923,1645.672,2060.047C1713.824,2178.866,1822.493,2270.717,1959.093,2280.879" fill="rgba(28, 83, 142, 0.4)" class="triangle-float2"></path><path d="M1313.27 1582.73 a349.46 349.46 0 1 0 698.92 0 a349.46 349.46 0 1 0 -698.92 0z" fill="rgba(28, 83, 142, 0.4)" class="triangle-float2"></path><path d="M2087.907,2605.71C2296.007,2621.731,2477.88,2474.058,2581.178,2292.697C2683.354,2113.305,2704.031,1890.457,2595.225,1715.007C2491.277,1547.391,2284.711,1484.304,2087.907,1497.297C1913.352,1508.821,1765.152,1619.778,1684.708,1775.12C1610.563,1918.299,1640.298,2080.631,1710.711,2225.682C1794.25,2397.772,1897.176,2591.026,2087.907,2605.71" fill="rgba(28, 83, 142, 0.4)" class="triangle-float2"></path></g><defs><mask id="SvgjsMask1399"><rect width="2000" height="1920" fill="#ffffff"></rect></mask><linearGradient x1="99%" y1="101.04%" x2="1%" y2="-1.04%" gradientUnits="userSpaceOnUse" id="SvgjsLinearGradient1400"><stop stop-color="#0e2a47" offset="0"></stop><stop stop-color="rgba(134, 255, 253, 1)" offset="1"></stop></linearGradient><style>
                @keyframes float1 {
                    0%{transform: translate(0, 0)}
                    50%{transform: translate(-10px, 0)}
                    100%{transform: translate(0, 0)}
                }

                .triangle-float1 {
                    animation: float1 5s infinite;
                }

                @keyframes float2 {
                    0%{transform: translate(0, 0)}
                    50%{transform: translate(-5px, -5px)}
                    100%{transform: translate(0, 0)}
                }

                .triangle-float2 {
                    animation: float2 4s infinite;
                }

                @keyframes float3 {
                    0%{transform: translate(0, 0)}
                    50%{transform: translate(0, -10px)}
                    100%{transform: translate(0, 0)}
                }

                .triangle-float3 {
                    animation: float3 6s infinite;
                }
            </style></defs></svg>