<svg id="visual" viewBox="0 0 900 600" width="900" height="600" xmlns="http://www.w3.org/2000/svg" xmlns:xlink="http://www.w3.org/1999/xlink" version="1.1"><g stroke-width="1" stroke-linejoin="bevel"><path d="M446 266.7L428 226.2L379.8 239.2Z" fill="#efefef" stroke="#efefef"></path><path d="M379.8 239.2L381.8 286.7L446 266.7Z" fill="#608789" stroke="#608789"></path><path d="M381.8 286.7L396.8 309.3L446 266.7Z" fill="#4e7a7d" stroke="#4e7a7d"></path><path d="M428 226.2L352.5 206.2L379.8 239.2Z" fill="#95adae" stroke="#95adae"></path><path d="M379.8 239.2L327.5 278.7L381.8 286.7Z" fill="#b8c7c8" stroke="#b8c7c8"></path><path d="M352.5 206.2L327.5 278.7L379.8 239.2Z" fill="#cad4d5" stroke="#cad4d5"></path><path d="M381.8 286.7L322.5 334.3L396.8 309.3Z" fill="#b8c7c8" stroke="#b8c7c8"></path><path d="M523.3 232.2L453 171.6L428 226.2Z" fill="#4e7a7d" stroke="#4e7a7d"></path><path d="M428 226.2L357.5 176.6L352.5 206.2Z" fill="#83a0a1" stroke="#83a0a1"></path><path d="M387.8 384.8L447 348.3L396.8 309.3Z" fill="#cad4d5" stroke="#cad4d5"></path><path d="M396.8 309.3L447 348.3L446 266.7Z" fill="#b8c7c8" stroke="#b8c7c8"></path><path d="M446 266.7L510.3 260.7L428 226.2Z" fill="#b8c7c8" stroke="#b8c7c8"></path><path d="M414.8 156.6L357.5 176.6L428 226.2Z" fill="#b8c7c8" stroke="#b8c7c8"></path><path d="M352.5 206.2L281.3 251.7L327.5 278.7Z" fill="#a7babb" stroke="#a7babb"></path><path d="M510.3 329.3L510.3 260.7L446 266.7Z" fill="#cad4d5" stroke="#cad4d5"></path><path d="M453 171.6L414.8 156.6L428 226.2Z" fill="#83a0a1" stroke="#83a0a1"></path><path d="M510.3 260.7L523.3 232.2L428 226.2Z" fill="#b8c7c8" stroke="#b8c7c8"></path><path d="M327.5 278.7L322.5 334.3L381.8 286.7Z" fill="#4e7a7d" stroke="#4e7a7d"></path><path d="M387.8 384.8L455 370.8L447 348.3Z" fill="#cad4d5" stroke="#cad4d5"></path><path d="M447 348.3L510.3 329.3L446 266.7Z" fill="#4e7a7d" stroke="#4e7a7d"></path><path d="M507.3 369.8L510.3 329.3L447 348.3Z" fill="#dde2e2" stroke="#dde2e2"></path><path d="M510.3 260.7L540.5 226.2L523.3 232.2Z" fill="#729395" stroke="#729395"></path><path d="M322.5 334.3L343.5 364.8L396.8 309.3Z" fill="#4e7a7d" stroke="#4e7a7d"></path><path d="M343.5 364.8L387.8 384.8L396.8 309.3Z" fill="#dde2e2" stroke="#dde2e2"></path><path d="M357.5 176.6L294.3 202.2L352.5 206.2Z" fill="#b8c7c8" stroke="#b8c7c8"></path><path d="M327.5 278.7L266.3 337.3L322.5 334.3Z" fill="#cad4d5" stroke="#cad4d5"></path><path d="M294.3 202.2L281.3 251.7L352.5 206.2Z" fill="#b8c7c8" stroke="#b8c7c8"></path><path d="M569.5 284.7L540.5 226.2L510.3 260.7Z" fill="#a7babb" stroke="#a7babb"></path><path d="M523.3 232.2L498.3 150.6L453 171.6Z" fill="#efefef" stroke="#efefef"></path><path d="M540.5 226.2L498.3 150.6L523.3 232.2Z" fill="#608789" stroke="#608789"></path><path d="M453 171.6L442 91.1L414.8 156.6Z" fill="#4e7a7d" stroke="#4e7a7d"></path><path d="M455 370.8L507.3 369.8L447 348.3Z" fill="#608789" stroke="#608789"></path><path d="M562.5 319.3L569.5 284.7L510.3 260.7Z" fill="#dde2e2" stroke="#dde2e2"></path><path d="M468 439.4L507.3 369.8L455 370.8Z" fill="#95adae" stroke="#95adae"></path><path d="M414.8 156.6L331.5 127.1L357.5 176.6Z" fill="#95adae" stroke="#95adae"></path><path d="M357.5 176.6L331.5 127.1L294.3 202.2Z" fill="#3c6e71" stroke="#3c6e71"></path><path d="M397.8 87.1L331.5 127.1L414.8 156.6Z" fill="#83a0a1" stroke="#83a0a1"></path><path d="M562.5 319.3L510.3 260.7L510.3 329.3Z" fill="#95adae" stroke="#95adae"></path><path d="M507.3 369.8L562.5 319.3L510.3 329.3Z" fill="#efefef" stroke="#efefef"></path><path d="M281.3 251.7L266.3 337.3L327.5 278.7Z" fill="#efefef" stroke="#efefef"></path><path d="M322.5 334.3L266.3 359.8L343.5 364.8Z" fill="#95adae" stroke="#95adae"></path><path d="M343.5 364.8L336.5 415.4L387.8 384.8Z" fill="#729395" stroke="#729395"></path><path d="M498.3 150.6L442 91.1L453 171.6Z" fill="#cad4d5" stroke="#cad4d5"></path><path d="M627.8 197.2L561.5 179.6L540.5 226.2Z" fill="#95adae" stroke="#95adae"></path><path d="M540.5 226.2L561.5 179.6L498.3 150.6Z" fill="#729395" stroke="#729395"></path><path d="M498.3 150.6L508.3 114.1L442 91.1Z" fill="#83a0a1" stroke="#83a0a1"></path><path d="M442 91.1L397.8 87.1L414.8 156.6Z" fill="#b8c7c8" stroke="#b8c7c8"></path><path d="M266.3 359.8L336.5 415.4L343.5 364.8Z" fill="#95adae" stroke="#95adae"></path><path d="M401.8 448.4L468 439.4L455 370.8Z" fill="#608789" stroke="#608789"></path><path d="M554.5 115.1L508.3 114.1L498.3 150.6Z" fill="#3c6e71" stroke="#3c6e71"></path><path d="M266.3 337.3L266.3 359.8L322.5 334.3Z" fill="#a7babb" stroke="#a7babb"></path><path d="M222 222.2L237 291.7L281.3 251.7Z" fill="#a7babb" stroke="#a7babb"></path><path d="M281.3 251.7L237 291.7L266.3 337.3Z" fill="#efefef" stroke="#efefef"></path><path d="M266.3 337.3L210 364.8L266.3 359.8Z" fill="#608789" stroke="#608789"></path><path d="M222 222.2L281.3 251.7L294.3 202.2Z" fill="#efefef" stroke="#efefef"></path><path d="M282.3 130.1L294.3 202.2L331.5 127.1Z" fill="#729395" stroke="#729395"></path><path d="M282.3 130.1L268.3 149.6L294.3 202.2Z" fill="#95adae" stroke="#95adae"></path><path d="M348.5 62.5L282.3 130.1L331.5 127.1Z" fill="#3c6e71" stroke="#3c6e71"></path><path d="M562.5 319.3L596.8 291.7L569.5 284.7Z" fill="#3c6e71" stroke="#3c6e71"></path><path d="M569.5 284.7L627.8 197.2L540.5 226.2Z" fill="#4e7a7d" stroke="#4e7a7d"></path><path d="M598.8 314.3L596.8 291.7L562.5 319.3Z" fill="#a7babb" stroke="#a7babb"></path><path d="M401.8 448.4L455 370.8L387.8 384.8Z" fill="#608789" stroke="#608789"></path><path d="M579.5 383.8L598.8 314.3L562.5 319.3Z" fill="#a7babb" stroke="#a7babb"></path><path d="M336.5 415.4L401.8 448.4L387.8 384.8Z" fill="#3c6e71" stroke="#3c6e71"></path><path d="M268.3 149.6L222 222.2L294.3 202.2Z" fill="#a7babb" stroke="#a7babb"></path><path d="M579.5 383.8L562.5 319.3L507.3 369.8Z" fill="#95adae" stroke="#95adae"></path><path d="M161.8 314.3L221 313.3L149.8 279.7Z" fill="#efefef" stroke="#efefef"></path><path d="M237 291.7L221 313.3L266.3 337.3Z" fill="#83a0a1" stroke="#83a0a1"></path><path d="M561.5 179.6L554.5 115.1L498.3 150.6Z" fill="#729395" stroke="#729395"></path><path d="M452 40.5L411.8 46.5L442 91.1Z" fill="#a7babb" stroke="#a7babb"></path><path d="M606.8 121.1L554.5 115.1L561.5 179.6Z" fill="#b8c7c8" stroke="#b8c7c8"></path><path d="M411.8 46.5L348.5 62.5L397.8 87.1Z" fill="#608789" stroke="#608789"></path><path d="M397.8 87.1L348.5 62.5L331.5 127.1Z" fill="#efefef" stroke="#efefef"></path><path d="M411.8 46.5L397.8 87.1L442 91.1Z" fill="#83a0a1" stroke="#83a0a1"></path><path d="M521.3 437.4L579.5 383.8L507.3 369.8Z" fill="#cad4d5" stroke="#cad4d5"></path><path d="M468 439.4L521.3 437.4L507.3 369.8Z" fill="#cad4d5" stroke="#cad4d5"></path><path d="M518.3 478.9L521.3 437.4L468 439.4Z" fill="#dde2e2" stroke="#dde2e2"></path><path d="M452 40.5L442 91.1L497.3 47.5Z" fill="#95adae" stroke="#95adae"></path><path d="M497.3 47.5L442 91.1L508.3 114.1Z" fill="#3c6e71" stroke="#3c6e71"></path><path d="M266.3 359.8L269.3 430.4L336.5 415.4Z" fill="#83a0a1" stroke="#83a0a1"></path><path d="M336.5 415.4L335.5 495.9L401.8 448.4Z" fill="#95adae" stroke="#95adae"></path><path d="M210 364.8L269.3 430.4L266.3 359.8Z" fill="#efefef" stroke="#efefef"></path><path d="M660 255.7L627.8 197.2L596.8 291.7Z" fill="#608789" stroke="#608789"></path><path d="M596.8 291.7L627.8 197.2L569.5 284.7Z" fill="#a7babb" stroke="#a7babb"></path><path d="M219 112.1L206 162.6L268.3 149.6Z" fill="#cad4d5" stroke="#cad4d5"></path><path d="M268.3 149.6L206 162.6L222 222.2Z" fill="#608789" stroke="#608789"></path><path d="M149.8 279.7L221 313.3L237 291.7Z" fill="#efefef" stroke="#efefef"></path><path d="M219 112.1L268.3 149.6L282.3 130.1Z" fill="#efefef" stroke="#efefef"></path><path d="M393.8 510.9L443 481.9L401.8 448.4Z" fill="#a7babb" stroke="#a7babb"></path><path d="M401.8 448.4L443 481.9L468 439.4Z" fill="#83a0a1" stroke="#83a0a1"></path><path d="M161.8 314.3L210 364.8L221 313.3Z" fill="#3c6e71" stroke="#3c6e71"></path><path d="M221 313.3L210 364.8L266.3 337.3Z" fill="#4e7a7d" stroke="#4e7a7d"></path><path d="M571.5 59.5L497.3 47.5L508.3 114.1Z" fill="#3c6e71" stroke="#3c6e71"></path><path d="M571.5 59.5L508.3 114.1L554.5 115.1Z" fill="#efefef" stroke="#efefef"></path><path d="M620.8 143.6L606.8 121.1L561.5 179.6Z" fill="#608789" stroke="#608789"></path><path d="M627.8 197.2L620.8 143.6L561.5 179.6Z" fill="#83a0a1" stroke="#83a0a1"></path><path d="M264.3 50.5L219 112.1L282.3 130.1Z" fill="#95adae" stroke="#95adae"></path><path d="M518.3 478.9L572.5 439.4L521.3 437.4Z" fill="#608789" stroke="#608789"></path><path d="M521.3 437.4L572.5 439.4L579.5 383.8Z" fill="#4e7a7d" stroke="#4e7a7d"></path><path d="M579.5 383.8L616.8 387.8L598.8 314.3Z" fill="#95adae" stroke="#95adae"></path><path d="M598.8 314.3L660 255.7L596.8 291.7Z" fill="#608789" stroke="#608789"></path><path d="M572.5 439.4L616.8 387.8L579.5 383.8Z" fill="#cad4d5" stroke="#cad4d5"></path><path d="M443 481.9L518.3 478.9L468 439.4Z" fill="#729395" stroke="#729395"></path><path d="M186.8 94.1L178.8 171.6L206 162.6Z" fill="#b8c7c8" stroke="#b8c7c8"></path><path d="M206 162.6L178.8 171.6L222 222.2Z" fill="#83a0a1" stroke="#83a0a1"></path><path d="M696 348.3L660 255.7L598.8 314.3Z" fill="#83a0a1" stroke="#83a0a1"></path><path d="M627.8 197.2L675 145.6L620.8 143.6Z" fill="#dde2e2" stroke="#dde2e2"></path><path d="M269.3 430.4L335.5 495.9L336.5 415.4Z" fill="#dde2e2" stroke="#dde2e2"></path><path d="M443 481.9L509.3 543.5L518.3 478.9Z" fill="#dde2e2" stroke="#dde2e2"></path><path d="M178.8 171.6L164.8 204.2L222 222.2Z" fill="#608789" stroke="#608789"></path><path d="M335.5 495.9L393.8 510.9L401.8 448.4Z" fill="#4e7a7d" stroke="#4e7a7d"></path><path d="M318.5 0L264.3 50.5L348.5 62.5Z" fill="#cad4d5" stroke="#cad4d5"></path><path d="M348.5 62.5L264.3 50.5L282.3 130.1Z" fill="#cad4d5" stroke="#cad4d5"></path><path d="M403.8 0L348.5 62.5L411.8 46.5Z" fill="#4e7a7d" stroke="#4e7a7d"></path><path d="M149.8 279.7L237 291.7L222 222.2Z" fill="#a7babb" stroke="#a7babb"></path><path d="M239 488.9L268.3 486.9L269.3 430.4Z" fill="#efefef" stroke="#efefef"></path><path d="M622.8 64.5L571.5 59.5L606.8 121.1Z" fill="#83a0a1" stroke="#83a0a1"></path><path d="M606.8 121.1L571.5 59.5L554.5 115.1Z" fill="#4e7a7d" stroke="#4e7a7d"></path><path d="M456 0L403.8 0L452 40.5Z" fill="#729395" stroke="#729395"></path><path d="M452 40.5L403.8 0L411.8 46.5Z" fill="#efefef" stroke="#efefef"></path><path d="M456 0L452 40.5L497.3 47.5Z" fill="#3c6e71" stroke="#3c6e71"></path><path d="M164.8 204.2L149.8 279.7L222 222.2Z" fill="#83a0a1" stroke="#83a0a1"></path><path d="M523.3 0L456 0L497.3 47.5Z" fill="#608789" stroke="#608789"></path><path d="M709.3 284.7L676 223.2L660 255.7Z" fill="#4e7a7d" stroke="#4e7a7d"></path><path d="M660 255.7L676 223.2L627.8 197.2Z" fill="#b8c7c8" stroke="#b8c7c8"></path><path d="M677 87.1L622.8 64.5L606.8 121.1Z" fill="#95adae" stroke="#95adae"></path><path d="M269.3 430.4L268.3 486.9L335.5 495.9Z" fill="#83a0a1" stroke="#83a0a1"></path><path d="M353.5 600L414.8 532.5L393.8 510.9Z" fill="#95adae" stroke="#95adae"></path><path d="M205 437.4L269.3 430.4L210 364.8Z" fill="#efefef" stroke="#efefef"></path><path d="M112.5 314.3L172.8 384.8L161.8 314.3Z" fill="#729395" stroke="#729395"></path><path d="M161.8 314.3L172.8 384.8L210 364.8Z" fill="#b8c7c8" stroke="#b8c7c8"></path><path d="M172.8 384.8L205 437.4L210 364.8Z" fill="#729395" stroke="#729395"></path><path d="M518.3 478.9L580.5 471.9L572.5 439.4Z" fill="#efefef" stroke="#efefef"></path><path d="M572.5 439.4L622.8 443.4L616.8 387.8Z" fill="#cad4d5" stroke="#cad4d5"></path><path d="M509.3 543.5L580.5 471.9L518.3 478.9Z" fill="#a7babb" stroke="#a7babb"></path><path d="M403.8 0L318.5 0L348.5 62.5Z" fill="#608789" stroke="#608789"></path><path d="M320.5 552.5L393.8 510.9L335.5 495.9Z" fill="#3c6e71" stroke="#3c6e71"></path><path d="M393.8 510.9L414.8 532.5L443 481.9Z" fill="#3c6e71" stroke="#3c6e71"></path><path d="M287.3 0L239 43.5L264.3 50.5Z" fill="#3c6e71" stroke="#3c6e71"></path><path d="M264.3 50.5L239 43.5L219 112.1Z" fill="#a7babb" stroke="#a7babb"></path><path d="M219 112.1L186.8 94.1L206 162.6Z" fill="#83a0a1" stroke="#83a0a1"></path><path d="M239 43.5L186.8 94.1L219 112.1Z" fill="#dde2e2" stroke="#dde2e2"></path><path d="M178.8 171.6L120.5 166.6L164.8 204.2Z" fill="#729395" stroke="#729395"></path><path d="M580.5 471.9L622.8 443.4L572.5 439.4Z" fill="#4e7a7d" stroke="#4e7a7d"></path><path d="M616.8 387.8L696 348.3L598.8 314.3Z" fill="#b8c7c8" stroke="#b8c7c8"></path><path d="M571.5 59.5L523.3 0L497.3 47.5Z" fill="#3c6e71" stroke="#3c6e71"></path><path d="M318.5 0L287.3 0L264.3 50.5Z" fill="#3c6e71" stroke="#3c6e71"></path><path d="M677 87.1L606.8 121.1L620.8 143.6Z" fill="#cad4d5" stroke="#cad4d5"></path><path d="M571.5 59.5L581.5 0L523.3 0Z" fill="#efefef" stroke="#efefef"></path><path d="M676 223.2L675 145.6L627.8 197.2Z" fill="#95adae" stroke="#95adae"></path><path d="M205 437.4L239 488.9L269.3 430.4Z" fill="#cad4d5" stroke="#cad4d5"></path><path d="M299.3 555.5L320.5 552.5L335.5 495.9Z" fill="#dde2e2" stroke="#dde2e2"></path><path d="M395.8 600L450 544.5L414.8 532.5Z" fill="#a7babb" stroke="#a7babb"></path><path d="M414.8 532.5L450 544.5L443 481.9Z" fill="#83a0a1" stroke="#83a0a1"></path><path d="M622.8 443.4L672 402.8L616.8 387.8Z" fill="#3c6e71" stroke="#3c6e71"></path><path d="M672 402.8L696 348.3L616.8 387.8Z" fill="#b8c7c8" stroke="#b8c7c8"></path><path d="M676 223.2L715.3 198.2L675 145.6Z" fill="#3c6e71" stroke="#3c6e71"></path><path d="M696 348.3L709.3 284.7L660 255.7Z" fill="#efefef" stroke="#efefef"></path><path d="M450 544.5L509.3 543.5L443 481.9Z" fill="#608789" stroke="#608789"></path><path d="M580.5 471.9L621.8 485.9L622.8 443.4Z" fill="#dde2e2" stroke="#dde2e2"></path><path d="M622.8 443.4L690 437.4L672 402.8Z" fill="#729395" stroke="#729395"></path><path d="M99.5 235.2L109.5 285.7L149.8 279.7Z" fill="#b8c7c8" stroke="#b8c7c8"></path><path d="M149.8 279.7L112.5 314.3L161.8 314.3Z" fill="#b8c7c8" stroke="#b8c7c8"></path><path d="M172.8 384.8L172.8 448.4L205 437.4Z" fill="#3c6e71" stroke="#3c6e71"></path><path d="M99.5 235.2L149.8 279.7L164.8 204.2Z" fill="#83a0a1" stroke="#83a0a1"></path><path d="M109.5 285.7L112.5 314.3L149.8 279.7Z" fill="#cad4d5" stroke="#cad4d5"></path><path d="M205 437.4L185.8 506.9L239 488.9Z" fill="#4e7a7d" stroke="#4e7a7d"></path><path d="M186.8 94.1L120.5 166.6L178.8 171.6Z" fill="#dde2e2" stroke="#dde2e2"></path><path d="M128.5 423.4L172.8 448.4L172.8 384.8Z" fill="#a7babb" stroke="#a7babb"></path><path d="M239 43.5L186.8 48.5L186.8 94.1Z" fill="#729395" stroke="#729395"></path><path d="M186.8 94.1L108.5 106.1L120.5 166.6Z" fill="#729395" stroke="#729395"></path><path d="M225 0L186.8 48.5L239 43.5Z" fill="#608789" stroke="#608789"></path><path d="M299.3 555.5L268.3 486.9L243 531.5Z" fill="#3c6e71" stroke="#3c6e71"></path><path d="M299.3 555.5L335.5 495.9L268.3 486.9Z" fill="#cad4d5" stroke="#cad4d5"></path><path d="M450 544.5L487.3 600L509.3 543.5Z" fill="#efefef" stroke="#efefef"></path><path d="M598.8 0L571.5 59.5L622.8 64.5Z" fill="#efefef" stroke="#efefef"></path><path d="M598.8 0L581.5 0L571.5 59.5Z" fill="#cad4d5" stroke="#cad4d5"></path><path d="M709.3 284.7L715.3 198.2L676 223.2Z" fill="#95adae" stroke="#95adae"></path><path d="M675 145.6L677 87.1L620.8 143.6Z" fill="#b8c7c8" stroke="#b8c7c8"></path><path d="M580.5 564.5L621.8 485.9L580.5 471.9Z" fill="#a7babb" stroke="#a7babb"></path><path d="M120.5 166.6L99.5 235.2L164.8 204.2Z" fill="#b8c7c8" stroke="#b8c7c8"></path><path d="M68.3 376.8L110.5 398.8L112.5 314.3Z" fill="#dde2e2" stroke="#dde2e2"></path><path d="M736.3 103.1L677 87.1L675 145.6Z" fill="#4e7a7d" stroke="#4e7a7d"></path><path d="M735.3 366.8L717.3 340.3L696 348.3Z" fill="#95adae" stroke="#95adae"></path><path d="M696 348.3L717.3 340.3L709.3 284.7Z" fill="#b8c7c8" stroke="#b8c7c8"></path><path d="M771.5 233.2L725.3 171.6L715.3 198.2Z" fill="#608789" stroke="#608789"></path><path d="M735.3 366.8L696 348.3L672 402.8Z" fill="#83a0a1" stroke="#83a0a1"></path><path d="M243 531.5L268.3 486.9L239 488.9Z" fill="#a7babb" stroke="#a7babb"></path><path d="M353.5 600L395.8 600L414.8 532.5Z" fill="#4e7a7d" stroke="#4e7a7d"></path><path d="M287.3 0L225 0L239 43.5Z" fill="#83a0a1" stroke="#83a0a1"></path><path d="M672 0L598.8 0L622.8 64.5Z" fill="#4e7a7d" stroke="#4e7a7d"></path><path d="M185.8 506.9L243 531.5L239 488.9Z" fill="#95adae" stroke="#95adae"></path><path d="M677 87.1L672 65.5L622.8 64.5Z" fill="#4e7a7d" stroke="#4e7a7d"></path><path d="M746.3 61.5L672 65.5L677 87.1Z" fill="#a7babb" stroke="#a7babb"></path><path d="M771.5 233.2L715.3 198.2L709.3 284.7Z" fill="#608789" stroke="#608789"></path><path d="M715.3 198.2L725.3 171.6L675 145.6Z" fill="#608789" stroke="#608789"></path><path d="M110.5 398.8L128.5 423.4L172.8 384.8Z" fill="#3c6e71" stroke="#3c6e71"></path><path d="M172.8 448.4L185.8 506.9L205 437.4Z" fill="#608789" stroke="#608789"></path><path d="M110.5 398.8L172.8 384.8L112.5 314.3Z" fill="#b8c7c8" stroke="#b8c7c8"></path><path d="M67.3 310.3L112.5 314.3L109.5 285.7Z" fill="#b8c7c8" stroke="#b8c7c8"></path><path d="M679 473.9L690 437.4L622.8 443.4Z" fill="#95adae" stroke="#95adae"></path><path d="M124.5 485.9L172.8 448.4L128.5 423.4Z" fill="#a7babb" stroke="#a7babb"></path><path d="M124.5 485.9L185.8 506.9L172.8 448.4Z" fill="#efefef" stroke="#efefef"></path><path d="M110.5 50.5L186.8 94.1L186.8 48.5Z" fill="#b8c7c8" stroke="#b8c7c8"></path><path d="M110.5 50.5L108.5 106.1L186.8 94.1Z" fill="#729395" stroke="#729395"></path><path d="M120.5 166.6L69.3 182.6L99.5 235.2Z" fill="#efefef" stroke="#efefef"></path><path d="M320.5 552.5L299.3 555.5L292.3 600Z" fill="#a7babb" stroke="#a7babb"></path><path d="M353.5 600L320.5 552.5L292.3 600Z" fill="#cad4d5" stroke="#cad4d5"></path><path d="M353.5 600L393.8 510.9L320.5 552.5Z" fill="#dde2e2" stroke="#dde2e2"></path><path d="M712.3 443.4L735.3 366.8L672 402.8Z" fill="#95adae" stroke="#95adae"></path><path d="M717.3 340.3L768.5 290.7L709.3 284.7Z" fill="#dde2e2" stroke="#dde2e2"></path><path d="M671 538.5L679 473.9L621.8 485.9Z" fill="#83a0a1" stroke="#83a0a1"></path><path d="M621.8 485.9L679 473.9L622.8 443.4Z" fill="#4e7a7d" stroke="#4e7a7d"></path><path d="M690 437.4L712.3 443.4L672 402.8Z" fill="#dde2e2" stroke="#dde2e2"></path><path d="M580.5 564.5L580.5 471.9L509.3 543.5Z" fill="#83a0a1" stroke="#83a0a1"></path><path d="M395.8 600L453 600L450 544.5Z" fill="#83a0a1" stroke="#83a0a1"></path><path d="M292.3 600L299.3 555.5L243 531.5Z" fill="#95adae" stroke="#95adae"></path><path d="M225 0L178.8 0L186.8 48.5Z" fill="#dde2e2" stroke="#dde2e2"></path><path d="M50.3 259.7L109.5 285.7L99.5 235.2Z" fill="#efefef" stroke="#efefef"></path><path d="M50.3 259.7L67.3 310.3L109.5 285.7Z" fill="#95adae" stroke="#95adae"></path><path d="M108.5 106.1L69.3 182.6L120.5 166.6Z" fill="#95adae" stroke="#95adae"></path><path d="M578.5 600L580.5 564.5L509.3 543.5Z" fill="#b8c7c8" stroke="#b8c7c8"></path><path d="M453 600L487.3 600L450 544.5Z" fill="#cad4d5" stroke="#cad4d5"></path><path d="M69.3 182.6L61.3 231.2L99.5 235.2Z" fill="#a7babb" stroke="#a7babb"></path><path d="M723.3 484.9L712.3 443.4L679 473.9Z" fill="#cad4d5" stroke="#cad4d5"></path><path d="M679 473.9L712.3 443.4L690 437.4Z" fill="#a7babb" stroke="#a7babb"></path><path d="M796.5 307.3L768.5 290.7L735.3 366.8Z" fill="#a7babb" stroke="#a7babb"></path><path d="M735.3 366.8L768.5 290.7L717.3 340.3Z" fill="#dde2e2" stroke="#dde2e2"></path><path d="M61.3 231.2L50.3 259.7L99.5 235.2Z" fill="#729395" stroke="#729395"></path><path d="M0 269.7L50.3 259.7L0 233.2Z" fill="#95adae" stroke="#95adae"></path><path d="M774.5 146.6L736.3 103.1L725.3 171.6Z" fill="#729395" stroke="#729395"></path><path d="M725.3 171.6L736.3 103.1L675 145.6Z" fill="#4e7a7d" stroke="#4e7a7d"></path><path d="M672 65.5L672 0L622.8 64.5Z" fill="#a7babb" stroke="#a7babb"></path><path d="M768.5 290.7L771.5 233.2L709.3 284.7Z" fill="#95adae" stroke="#95adae"></path><path d="M210 600L292.3 600L243 531.5Z" fill="#729395" stroke="#729395"></path><path d="M0 312.3L68.3 376.8L67.3 310.3Z" fill="#cad4d5" stroke="#cad4d5"></path><path d="M67.3 310.3L68.3 376.8L112.5 314.3Z" fill="#b8c7c8" stroke="#b8c7c8"></path><path d="M76.3 502.9L124.5 485.9L36.3 437.4Z" fill="#4e7a7d" stroke="#4e7a7d"></path><path d="M578.5 600L614.8 560.5L580.5 564.5Z" fill="#b8c7c8" stroke="#b8c7c8"></path><path d="M580.5 564.5L614.8 560.5L621.8 485.9Z" fill="#83a0a1" stroke="#83a0a1"></path><path d="M178.8 0L110.5 50.5L186.8 48.5Z" fill="#95adae" stroke="#95adae"></path><path d="M108.5 106.1L53.3 109.1L69.3 182.6Z" fill="#cad4d5" stroke="#cad4d5"></path><path d="M124.5 485.9L128.5 423.4L36.3 437.4Z" fill="#729395" stroke="#729395"></path><path d="M185.8 506.9L171.8 561.5L243 531.5Z" fill="#3c6e71" stroke="#3c6e71"></path><path d="M709.3 0L672 0L672 65.5Z" fill="#b8c7c8" stroke="#b8c7c8"></path><path d="M771.5 233.2L774.5 146.6L725.3 171.6Z" fill="#b8c7c8" stroke="#b8c7c8"></path><path d="M736.3 103.1L746.3 61.5L677 87.1Z" fill="#83a0a1" stroke="#83a0a1"></path><path d="M487.3 600L578.5 600L509.3 543.5Z" fill="#cad4d5" stroke="#cad4d5"></path><path d="M665 600L671 538.5L614.8 560.5Z" fill="#4e7a7d" stroke="#4e7a7d"></path><path d="M614.8 560.5L671 538.5L621.8 485.9Z" fill="#dde2e2" stroke="#dde2e2"></path><path d="M671 538.5L723.3 484.9L679 473.9Z" fill="#dde2e2" stroke="#dde2e2"></path><path d="M712.3 443.4L777.5 393.8L735.3 366.8Z" fill="#608789" stroke="#608789"></path><path d="M124.5 485.9L171.8 561.5L185.8 506.9Z" fill="#b8c7c8" stroke="#b8c7c8"></path><path d="M42.3 65.5L53.3 109.1L108.5 106.1Z" fill="#608789" stroke="#608789"></path><path d="M0 233.2L50.3 259.7L61.3 231.2Z" fill="#a7babb" stroke="#a7babb"></path><path d="M796.5 115.1L746.3 61.5L736.3 103.1Z" fill="#a7babb" stroke="#a7babb"></path><path d="M768.5 290.7L823.8 284.7L771.5 233.2Z" fill="#729395" stroke="#729395"></path><path d="M864.8 163.6L796.5 115.1L774.5 146.6Z" fill="#efefef" stroke="#efefef"></path><path d="M777.5 393.8L796.5 307.3L735.3 366.8Z" fill="#3c6e71" stroke="#3c6e71"></path><path d="M784.5 442.4L777.5 393.8L712.3 443.4Z" fill="#cad4d5" stroke="#cad4d5"></path><path d="M746.3 61.5L709.3 0L672 65.5Z" fill="#efefef" stroke="#efefef"></path><path d="M171.8 561.5L210 600L243 531.5Z" fill="#95adae" stroke="#95adae"></path><path d="M797.5 475.9L784.5 442.4L723.3 484.9Z" fill="#729395" stroke="#729395"></path><path d="M578.5 600L624.8 600L614.8 560.5Z" fill="#b8c7c8" stroke="#b8c7c8"></path><path d="M178.8 0L97.5 0L110.5 50.5Z" fill="#83a0a1" stroke="#83a0a1"></path><path d="M110.5 50.5L42.3 65.5L108.5 106.1Z" fill="#83a0a1" stroke="#83a0a1"></path><path d="M95.5 600L188.8 600L171.8 561.5Z" fill="#3c6e71" stroke="#3c6e71"></path><path d="M171.8 561.5L188.8 600L210 600Z" fill="#608789" stroke="#608789"></path><path d="M50.3 259.7L0 312.3L67.3 310.3Z" fill="#dde2e2" stroke="#dde2e2"></path><path d="M36.3 437.4L128.5 423.4L110.5 398.8Z" fill="#95adae" stroke="#95adae"></path><path d="M124.5 485.9L92.5 545.5L171.8 561.5Z" fill="#83a0a1" stroke="#83a0a1"></path><path d="M0 233.2L61.3 231.2L69.3 182.6Z" fill="#efefef" stroke="#efefef"></path><path d="M774.5 146.6L796.5 115.1L736.3 103.1Z" fill="#83a0a1" stroke="#83a0a1"></path><path d="M746.3 61.5L775.5 36.5L709.3 0Z" fill="#608789" stroke="#608789"></path><path d="M827.8 216.2L774.5 146.6L771.5 233.2Z" fill="#b8c7c8" stroke="#b8c7c8"></path><path d="M0 163.6L69.3 182.6L53.3 109.1Z" fill="#efefef" stroke="#efefef"></path><path d="M0 163.6L0 233.2L69.3 182.6Z" fill="#83a0a1" stroke="#83a0a1"></path><path d="M834.8 328.3L823.8 284.7L796.5 307.3Z" fill="#efefef" stroke="#efefef"></path><path d="M796.5 307.3L823.8 284.7L768.5 290.7Z" fill="#729395" stroke="#729395"></path><path d="M0 269.7L0 312.3L50.3 259.7Z" fill="#3c6e71" stroke="#3c6e71"></path><path d="M36.3 437.4L110.5 398.8L68.3 376.8Z" fill="#a7babb" stroke="#a7babb"></path><path d="M0 387.8L36.3 437.4L68.3 376.8Z" fill="#dde2e2" stroke="#dde2e2"></path><path d="M71.3 0L42.3 65.5L110.5 50.5Z" fill="#83a0a1" stroke="#83a0a1"></path><path d="M723.3 484.9L784.5 442.4L712.3 443.4Z" fill="#95adae" stroke="#95adae"></path><path d="M777.5 393.8L834.8 328.3L796.5 307.3Z" fill="#dde2e2" stroke="#dde2e2"></path><path d="M711.3 562.5L723.3 484.9L671 538.5Z" fill="#cad4d5" stroke="#cad4d5"></path><path d="M823.8 284.7L827.8 216.2L771.5 233.2Z" fill="#dde2e2" stroke="#dde2e2"></path><path d="M0 107.1L0 163.6L53.3 109.1Z" fill="#efefef" stroke="#efefef"></path><path d="M624.8 600L665 600L614.8 560.5Z" fill="#3c6e71" stroke="#3c6e71"></path><path d="M97.5 0L71.3 0L110.5 50.5Z" fill="#608789" stroke="#608789"></path><path d="M795.5 0L775.5 36.5L846.8 53.5Z" fill="#83a0a1" stroke="#83a0a1"></path><path d="M796.5 115.1L775.5 36.5L746.3 61.5Z" fill="#dde2e2" stroke="#dde2e2"></path><path d="M665 600L711.3 562.5L671 538.5Z" fill="#cad4d5" stroke="#cad4d5"></path><path d="M45.3 531.5L92.5 545.5L76.3 502.9Z" fill="#95adae" stroke="#95adae"></path><path d="M76.3 502.9L92.5 545.5L124.5 485.9Z" fill="#a7babb" stroke="#a7babb"></path><path d="M840.8 379.8L834.8 328.3L777.5 393.8Z" fill="#dde2e2" stroke="#dde2e2"></path><path d="M900 220.2L864.8 163.6L827.8 216.2Z" fill="#efefef" stroke="#efefef"></path><path d="M0 312.3L0 387.8L68.3 376.8Z" fill="#dde2e2" stroke="#dde2e2"></path><path d="M36.3 437.4L0 500.9L76.3 502.9Z" fill="#dde2e2" stroke="#dde2e2"></path><path d="M0 48.5L0 107.1L42.3 65.5Z" fill="#cad4d5" stroke="#cad4d5"></path><path d="M42.3 65.5L0 107.1L53.3 109.1Z" fill="#4e7a7d" stroke="#4e7a7d"></path><path d="M806.5 535.5L797.5 475.9L723.3 484.9Z" fill="#729395" stroke="#729395"></path><path d="M784.5 442.4L840.8 379.8L777.5 393.8Z" fill="#b8c7c8" stroke="#b8c7c8"></path><path d="M825.8 454.4L840.8 379.8L784.5 442.4Z" fill="#3c6e71" stroke="#3c6e71"></path><path d="M900 220.2L827.8 216.2L823.8 284.7Z" fill="#95adae" stroke="#95adae"></path><path d="M0 387.8L0 451.4L36.3 437.4Z" fill="#83a0a1" stroke="#83a0a1"></path><path d="M0 500.9L45.3 531.5L76.3 502.9Z" fill="#cad4d5" stroke="#cad4d5"></path><path d="M92.5 545.5L95.5 600L171.8 561.5Z" fill="#3c6e71" stroke="#3c6e71"></path><path d="M858.8 481.9L825.8 454.4L797.5 475.9Z" fill="#95adae" stroke="#95adae"></path><path d="M797.5 475.9L825.8 454.4L784.5 442.4Z" fill="#dde2e2" stroke="#dde2e2"></path><path d="M0 0L0 48.5L42.3 65.5Z" fill="#cad4d5" stroke="#cad4d5"></path><path d="M775.5 36.5L795.5 0L709.3 0Z" fill="#4e7a7d" stroke="#4e7a7d"></path><path d="M846.8 53.5L775.5 36.5L796.5 115.1Z" fill="#b8c7c8" stroke="#b8c7c8"></path><path d="M900 289.7L823.8 284.7L834.8 328.3Z" fill="#83a0a1" stroke="#83a0a1"></path><path d="M827.8 216.2L864.8 163.6L774.5 146.6Z" fill="#3c6e71" stroke="#3c6e71"></path><path d="M34.3 600L95.5 600L92.5 545.5Z" fill="#83a0a1" stroke="#83a0a1"></path><path d="M665 600L728.3 600L711.3 562.5Z" fill="#608789" stroke="#608789"></path><path d="M711.3 562.5L806.5 535.5L723.3 484.9Z" fill="#95adae" stroke="#95adae"></path><path d="M864.8 163.6L856.8 117.1L796.5 115.1Z" fill="#a7babb" stroke="#a7babb"></path><path d="M0 451.4L0 500.9L36.3 437.4Z" fill="#95adae" stroke="#95adae"></path><path d="M45.3 531.5L34.3 600L92.5 545.5Z" fill="#3c6e71" stroke="#3c6e71"></path><path d="M900 57.5L846.8 53.5L856.8 117.1Z" fill="#dde2e2" stroke="#dde2e2"></path><path d="M856.8 117.1L846.8 53.5L796.5 115.1Z" fill="#3c6e71" stroke="#3c6e71"></path><path d="M777.5 600L806.5 535.5L711.3 562.5Z" fill="#a7babb" stroke="#a7babb"></path><path d="M71.3 0L0 0L42.3 65.5Z" fill="#83a0a1" stroke="#83a0a1"></path><path d="M900 322.3L834.8 328.3L840.8 379.8Z" fill="#efefef" stroke="#efefef"></path><path d="M900 322.3L900 289.7L834.8 328.3Z" fill="#cad4d5" stroke="#cad4d5"></path><path d="M864.8 163.6L900 122.1L856.8 117.1Z" fill="#4e7a7d" stroke="#4e7a7d"></path><path d="M900 322.3L840.8 379.8L900 402.8Z" fill="#729395" stroke="#729395"></path><path d="M900 289.7L900 220.2L823.8 284.7Z" fill="#b8c7c8" stroke="#b8c7c8"></path><path d="M900 402.8L840.8 379.8L900 435.4Z" fill="#83a0a1" stroke="#83a0a1"></path><path d="M900 220.2L900 177.6L864.8 163.6Z" fill="#95adae" stroke="#95adae"></path><path d="M835.8 533.5L858.8 481.9L797.5 475.9Z" fill="#cad4d5" stroke="#cad4d5"></path><path d="M728.3 600L777.5 600L711.3 562.5Z" fill="#608789" stroke="#608789"></path><path d="M806.5 535.5L835.8 533.5L797.5 475.9Z" fill="#efefef" stroke="#efefef"></path><path d="M0 500.9L0 552.5L45.3 531.5Z" fill="#cad4d5" stroke="#cad4d5"></path><path d="M824.8 600L835.8 533.5L806.5 535.5Z" fill="#608789" stroke="#608789"></path><path d="M900 177.6L900 122.1L864.8 163.6Z" fill="#a7babb" stroke="#a7babb"></path><path d="M0 552.5L34.3 600L45.3 531.5Z" fill="#a7babb" stroke="#a7babb"></path><path d="M900 435.4L825.8 454.4L858.8 481.9Z" fill="#b8c7c8" stroke="#b8c7c8"></path><path d="M900 435.4L840.8 379.8L825.8 454.4Z" fill="#95adae" stroke="#95adae"></path><path d="M900 57.5L856.8 0L846.8 53.5Z" fill="#729395" stroke="#729395"></path><path d="M846.8 53.5L856.8 0L795.5 0Z" fill="#b8c7c8" stroke="#b8c7c8"></path><path d="M900 503.9L900 435.4L858.8 481.9Z" fill="#dde2e2" stroke="#dde2e2"></path><path d="M900 122.1L900 57.5L856.8 117.1Z" fill="#729395" stroke="#729395"></path><path d="M0 552.5L0 600L34.3 600Z" fill="#83a0a1" stroke="#83a0a1"></path><path d="M777.5 600L824.8 600L806.5 535.5Z" fill="#cad4d5" stroke="#cad4d5"></path><path d="M835.8 533.5L900 503.9L858.8 481.9Z" fill="#3c6e71" stroke="#3c6e71"></path><path d="M900 552.5L900 503.9L835.8 533.5Z" fill="#608789" stroke="#608789"></path><path d="M900 57.5L900 0L856.8 0Z" fill="#b8c7c8" stroke="#b8c7c8"></path><path d="M824.8 600L900 552.5L835.8 533.5Z" fill="#cad4d5" stroke="#cad4d5"></path><path d="M824.8 600L900 600L900 552.5Z" fill="#83a0a1" stroke="#83a0a1"></path></g></svg>